<svg xmlns="http://www.w3.org/2000/svg" width="26" height="26" viewBox="0 0 26 26">
  <g id="envelope" transform="translate(-0.881)" opacity="0.744">
    <rect id="Mail" width="26" height="26" transform="translate(0.881)" fill="none"/>
    <path id="Caminho_1601" data-name="Caminho 1601" d="M29.863,34.214a2.852,2.852,0,0,1-1.915.814q-8.909.055-17.818,0a2.945,2.945,0,0,1-2.82-2.82q-.037-5.747,0-11.494a2.944,2.944,0,0,1,2.82-2.82q8.909-.055,17.818,0a2.941,2.941,0,0,1,2.82,2.82q.034,5.747,0,11.494a2.815,2.815,0,0,1-.527,1.566.38.38,0,0,1-.107.274A.408.408,0,0,1,29.863,34.214Zm-7.916-7.44-.459.443a3.76,3.76,0,0,1-5.1,0l-.1-.1L9.039,33.851a2,2,0,0,0,1.1.36q8.9.055,17.8,0a2.039,2.039,0,0,0,1.231-.457ZM8.5,19.6a2,2,0,0,0-.379,1.127q-.037,5.737,0,11.474a2.011,2.011,0,0,0,.342,1.071L15.7,26.55,8.5,19.6Zm20.985-.105-6.956,6.716L29.7,33.131a1.986,1.986,0,0,0,.255-.933q.033-5.737,0-11.474A2.031,2.031,0,0,0,29.49,19.491Zm-.627-.529a1.973,1.973,0,0,0-.925-.253c-5.924-.037-11.847,0-17.771,0a2.01,2.01,0,0,0-1.07.325c2.626,2.541,5.24,5.095,7.883,7.619a2.927,2.927,0,0,0,3.943-.025l7.94-7.666Z" transform="translate(-5.103 -14.221)"/>
  </g>
</svg>
