<svg width="92" height="39" xmlns="http://www.w3.org/2000/svg"><path d="M83.7 28.8c3 0 4.5.7 7.1 1.7 1.4.5 0-1.4-1-2.3-1.2-.8-2.1-1.4-4.4-1.8-2.3-.4-5-.6-7.6.2 2-2.6 3.7-3.9 6.9-6.1l2.3-1.4c1.2-.8 1.7-1.6 1.1-3.6-1.7-.4-3.4-.6-5.1-.7l.4-2.8c.1-.5-1.3-.6-1.8-.2-.5.4-.7 1.6-.8 3-2.3 0-4.5.3-6.6.7-1.2.2-1 1-1 1.6 0 .6.8 1.3 1.6 1.2 4-1 6.9-.8 9-.5-1.9 1.2-4.2 2.8-5.6 4-2.1 1.8-3.2 3-4.4 5.1-.2.3-.7 1.2-.5 2 .2.7.6 1.2 1 1.1.7 0 3.5-.9 6.8-1.2l-.1 3.3c0 .6 1.5.6 2 0 .6-.5.7-1.8.7-3.3zM71 15.4c-.2-.2-1-.4-1.5-.5-.8 0-1.4.3-1.5 1-.3 2.3-.4 5.7-.8 8.5-.4 3-2.2 4-3.4 3.8-2-.4-2.5-2.6-2.4-6 .1-3.6 1.2-7.1.6-7.3-2.6-.5-4.4 2.9-4.2 9 0 3.3 1 6.3 4.2 7.5 3 1.1 6-1.5 6.3-2.5l.3 2.6c.3.5 1.5 0 2-.3.6-.2 1-.6.9-1.3-.4-3.4-.4-5.3-.4-8.8v-5.7zm-18.6-2.9a2 2 0 0 0 1.2 1.3c.5.2.9.2 1.3.1l.8-.3.3-.2c.7-.2 1.2-1.1 1-1.9-.2-.9-1.2-1.3-2.7-.9-1.4.4-2.1 1-2 2zm-.8 18.2c.2.8 1.1 1.2 2.2 1 1 0 1.8-.4 1.8-1l-.4-2.9c-.6-3.7-.6-7.1 0-10.6.2-.7-.5-1.3-1.3-1.5-1-.2-1.8.3-2 1.3-.6 3-.9 8.7-.3 13.7zM32.2 13.8a58 58 0 0 1 1.5-.9l2.5-1.4c1.2-.8.9-2.1-.6-2.5-1.3-.3-6.2 3.5-6 4.6 0 1.1 1.1 1.1 2.6.2zm17.4.6c1.6-5.6 1-13.4-2-14.2-3-.7-6.2 5.2-6.8 10.4a35 35 0 0 0 .4 12c0 .5.2.7.4 1.7-1 2-4.2 4.6-7.2 4.6-2.6 0-4-1.9-4.3-4h2c1.2-.1 2.3-.3 3.4-.8 2.3-1.1 3.6-3.4 3-5.4-.6-1.8-1.8-3-4-3.5a7.4 7.4 0 0 0-8.3 5.6c-1 4.1 1 9.3 4.5 10.7 2.9 1.2 5.6.8 8-.7a12 12 0 0 0 3.8-3.8c1.7 3.4 3.8 7 8 9.4 6 3.4 13.2 1.5 16.5-2.2.3-.3.2-.7-.2-.8l-.8.2c-.3 0-7.2 3.4-13.6.9-3.4-1.4-6.6-6-7.5-9.5 2.5-3.6 3.3-5.8 4.7-10.6zM34 21.5a6.3 6.3 0 0 1-4.3 1.3c0-1.1.1-2 .3-2.6.5-2.2 2.2-3.3 4-2.7 1.6.6 1.7 2.6 0 4zM44.7 11c.7-3.1 1.8-5.4 2.4-5.5.5 0 .8.7.8 2 0 1.4-.2 3.3-.7 5.4a32 32 0 0 1-3 9c-.8-3.6-.3-7.2.5-11zM13.2 29.2c1-.4 1.2-1.4 1.2-2.3.3-3.6 3-11 5.7-14 0-.3-1.5 7.7-1 12.1.7 4.4 2.6 10 10 11.3 1.7.3 3.7-.3 3.8-.7.1-.5-1-.5-2.4-.9-4-1.1-6.2-4-7.3-8.1-1.2-4.2-.4-11.8.5-15.7.1-.8.7-1.6 1-2.5.1-.5-.1-1-.7-1-.4-.2-1-.1-1.6 0-1.2.3-3.3 1.6-5.2 4.2a48 48 0 0 0-4.4 8.8 70.8 70.8 0 0 1-2-13.2c.2-2 .6-1.9.7-2.9.1-1.5-.2-2.5-1.5-2.7-1.2-.1-2.3.6-3 1.7-.8 1-2.6 4.6-4.2 12.4C1.2 23.5.6 29.6.6 31.2c0 1.7.5 2.6 1.8 2.7 1.4.1 2.5-.7 2.5-2A81.2 81.2 0 0 1 7.6 9.6 64 64 0 0 0 11 28c.4 1.1 1.2 1.7 2.3 1.3z" fill="#FF3859" fill-rule="evenodd"/></svg>