<?xml version="1.0" encoding="utf-8"?>
<!-- Generator: Adobe Illustrator 23.0.0, SVG Export Plug-In . SVG Version: 6.00 Build 0)  -->
<svg version="1.1" id="Layer_1" xmlns="http://www.w3.org/2000/svg" xmlns:xlink="http://www.w3.org/1999/xlink" x="0px" y="0px"
	 width="134px" height="40px" viewBox="0 0 134 40" style="enable-background:new 0 0 134 40;" xml:space="preserve">
<style type="text/css">
	.st0{fill:url(#SVGID_1_);}
</style>
<linearGradient id="SVGID_1_" gradientUnits="userSpaceOnUse" x1="0" y1="20.35515" x2="134" y2="20.35515">
	<stop  offset="0" style="stop-color:#5A5CC1"/>
	<stop  offset="0.50639" style="stop-color:#763AAF"/>
	<stop  offset="1" style="stop-color:#92199E"/>
</linearGradient>
<path class="st0" d="M26.80011,33.8773h81.07129l-74.61334,6.47784L26.80011,33.8773z M29.6062,30.28459
	c-5.67969,0-9.99438-5.19214-9.99438-11.57434c0-6.38055,4.3147-11.57574,9.99438-11.57574
	c1.84857,0,3.19867,0.55951,4.70398,1.52118V7.67643h4.99237V29.7426h-4.99237v-0.97852
	C32.80487,29.72746,31.45477,30.28459,29.6062,30.28459z M29.6062,24.97087c2.80402,0,4.78027-2.7663,4.78027-6.26062
	c0-3.49188-1.97626-6.25861-4.78027-6.25861c-2.80054,0-4.85114,2.76672-4.85114,6.25861
	C24.75507,22.20457,26.80566,24.97087,29.6062,24.97087z M70.06097,30.28459c2.45587,0,4.24365-1.36243,4.24365-1.36243v0.82043
	h4.99274V7.67643h-4.99274v12.96259c0,2.43146-1.66522,4.48499-4.09094,4.48499c-2.42365,0-4.09027-2.05353-4.09027-4.48499V7.67643
	h-4.99274v12.96259C61.13068,25.95775,64.75793,30.28459,70.06097,30.28459z M125.06964,7.13444
	c-2.45581,0-4.24359,1.36237-4.24359,1.36237V7.67643h-4.99274V29.7426h4.99274V16.78001c0-2.43146,1.66522-4.48499,4.09094-4.48499
	c2.42365,0,4.09027,2.05353,4.09027,4.48499V29.7426H134V16.78001C134,11.46129,130.37274,7.13444,125.06964,7.13444z
	 M14.11926,19.42705l7.72626,10.31555h-6.53656l-6.39392-8.54889h-3.6933v8.54889H0V2.17766h8.62921
	c5.22809,0,9.47919,4.25934,9.47919,9.50348C18.1084,14.87437,16.52704,17.6934,14.11926,19.42705z M12.89166,11.68114
	c0-2.35651-1.91766-4.26984-4.26245-4.26984H5.22174v8.54468h3.40747C10.974,15.95598,12.89166,14.04399,12.89166,11.68114z
	 M83.73792,22.43315c-0.0014,4.92725,3.69946,7.87048,7.42267,7.87048c1.38739,0,3.31287-0.45575,4.88385-1.38898l-3.29065-4.39337
	c-0.44843,0.30511-1.0144,0.54272-1.66956,0.54272c-0.81567,0-2.35358-0.62524-2.35358-2.70746v-9.44281h4.26978V7.67619h-4.26978
	l-0.00037-5.49878h-4.99274l0.00037,5.49878h-2.6413v5.23755h2.6413V22.43315z M47.29065,20.67821l7.36377,9.06439h6.99524
	l-9.93445-11.72278l8.56415-10.34338h-6.99878l-5.98993,7.68707V0.35515h-5.14117V29.7426h5.14117V20.67821z M113.84552,20.25426
	l-14.38165-0.00311c0.65625,5.04242,6.34015,7.60199,9.75073,2.55914l4.40973,2.55444
	c-2.83459,4.03387-6.2088,4.93951-8.8421,4.93951c-5.2168,0-10.41968-4.76086-10.41968-11.59479
	c0-6.49933,4.14508-11.59296,9.92365-11.59296C109.96722,7.1165,115.07599,12.32878,113.84552,20.25426z M108.64471,15.86125
	c-0.9729-5.46472-7.94147-5.16821-8.99225,0H108.64471z"/>
</svg>
