<svg xmlns="http://www.w3.org/2000/svg" width="29" height="29" viewBox="0 0 29 29">
  <g id="Grupo_1103" data-name="Grupo 1103" transform="translate(-87)">
    <g id="Grupo_1102" data-name="Grupo 1102" transform="translate(87)">
      <rect id="Retângulo_1576" data-name="Retângulo 1576" width="29" height="29" rx="5" transform="translate(29 29) rotate(180)" fill="none" opacity="0.2"/>
      <g id="share-option" transform="translate(2.875 4.446)">
        <path id="Caminho_1484" data-name="Caminho 1484" d="M23.3,34.387l-6.729-6.729a.841.841,0,0,0-1.433.592v3.365H12.2q-9.371,0-11.5,5.3A11.968,11.968,0,0,0,0,41.287a15.783,15.783,0,0,0,1.669,5.927q.039.092.138.315t.177.394a1.494,1.494,0,0,0,.171.289.449.449,0,0,0,.368.224.384.384,0,0,0,.309-.131.49.49,0,0,0,.112-.328,2.676,2.676,0,0,0-.033-.348,2.719,2.719,0,0,1-.033-.309q-.066-.893-.066-1.616a11.187,11.187,0,0,1,.23-2.379A7.143,7.143,0,0,1,3.68,41.5a4.572,4.572,0,0,1,1.051-1.327,6.17,6.17,0,0,1,1.386-.913A7.518,7.518,0,0,1,7.866,38.7a16.666,16.666,0,0,1,2.024-.283q1.019-.079,2.307-.079h2.944v3.365a.837.837,0,0,0,1.433.591L23.3,35.57a.826.826,0,0,0,0-1.183Z" transform="translate(0 -27.408)"/>
      </g>
    </g>
  </g>
</svg>
