<svg xmlns="http://www.w3.org/2000/svg" width="31.543" height="32.647" viewBox="0 0 31.543 32.647">
  <g id="_2" data-name="2" transform="matrix(0.848, 0.53, -0.53, 0.848, 10.824, -2.703)">
    <path id="bell_ring_notification_alarm" d="M24.626,20.832A1.725,1.725,0,0,1,22.9,19.108v-7.76a8.623,8.623,0,0,0-7.761-8.58V1H13.416V2.768a8.623,8.623,0,0,0-7.76,8.58v7.76a1.725,1.725,0,0,1-1.725,1.725H3.5v1.725h8.347a2.587,2.587,0,1,0,4.863,0h8.347V20.832ZM7.38,19.108v-7.76a6.9,6.9,0,1,1,13.8,0v7.76a3.371,3.371,0,0,0,.483,1.725H6.9A3.371,3.371,0,0,0,7.38,19.108Zm7.76,4.311a.862.862,0,1,1-.862-.862A.862.862,0,0,1,15.141,23.419Z" transform="translate(0 0)" fill="#5689e3"/>
  </g>
</svg>
