<svg xmlns="http://www.w3.org/2000/svg" width="31" height="31" viewBox="0 0 31 31">
  <g id="money" transform="translate(-73.089 -73.089)">
    <path id="Caminho_1503" data-name="Caminho 1503" d="M88.589,73.089a15.5,15.5,0,1,0,15.5,15.5A15.517,15.517,0,0,0,88.589,73.089Zm0,28.555a13.055,13.055,0,1,1,13.055-13.055A13.069,13.069,0,0,1,88.589,101.644Z" fill="#5689e3"/>
    <path id="Caminho_1504" data-name="Caminho 1504" d="M195.558,152.219c0-.981,1.434-1.148,2.678-1.148a10.067,10.067,0,0,1,4.114,1.244l.263-2.7a10.147,10.147,0,0,0-3.8-.933l.383-2.751h-2.559l.383,2.751c-3.3.31-4.377,2.224-4.377,3.826,0,4.042,7.533,3.182,7.533,5.668,0,.934-.884,1.268-2.439,1.268a6.658,6.658,0,0,1-4.5-1.507l-.407,3.038a10.142,10.142,0,0,0,4.186.957l-.383,2.655h2.559l-.383-2.679c3.874-.335,4.568-2.392,4.568-3.755C203.379,153.344,195.558,154.539,195.558,152.219Z" transform="translate(-109.42 -66.668)" fill="#5689e3"/>
  </g>
</svg>
