<svg xmlns="http://www.w3.org/2000/svg" width="25.892" height="27.722" viewBox="0 0 25.892 27.722">
  <g id="icons" transform="translate(-0.792)">
    <path id="settings" d="M25.52,16.633l-1.386-.809a2.377,2.377,0,0,1,0-4.043l1.386-.809a2.2,2.2,0,0,0,.809-3.119L25.173,5.891a2.2,2.2,0,0,0-3.119-.809l-1.386.809A2.3,2.3,0,0,1,17.2,3.927V2.31A2.317,2.317,0,0,0,14.893,0h-2.31a2.317,2.317,0,0,0-2.31,2.31v1.5A2.3,2.3,0,0,1,6.808,5.775L5.422,5.082A2.239,2.239,0,0,0,2.3,5.891L1.148,7.855a2.519,2.519,0,0,0,.809,3.234l1.386.809a2.275,2.275,0,0,1,0,3.927l-1.386.809a2.2,2.2,0,0,0-.809,3.119L2.3,21.716a2.2,2.2,0,0,0,3.119.809l1.386-.693a2.3,2.3,0,0,1,3.465,1.964v1.617a2.317,2.317,0,0,0,2.31,2.31h2.31a2.317,2.317,0,0,0,2.31-2.31v-1.5a2.3,2.3,0,0,1,3.465-1.964l1.386.809a2.239,2.239,0,0,0,3.119-.809l1.155-1.964A2.636,2.636,0,0,0,25.52,16.633ZM13.738,18.481a4.62,4.62,0,1,1,4.62-4.62A4.634,4.634,0,0,1,13.738,18.481Z" transform="translate(0)" fill="#5689e3"/>
  </g>
</svg>
