<svg xmlns="http://www.w3.org/2000/svg" width="116.624" height="112.729" viewBox="0 0 116.624 112.729">
  <g id="logo" transform="translate(0 0.04)">
    <path id="Caminho_1574" data-name="Caminho 1574" d="M550.69,68.424a2.524,2.524,0,0,0-.051.362,34.995,34.995,0,0,1-.174,3.764q-.214,2.06-.52,4.111a53.354,53.354,0,0,1-1.724,7.573,54.859,54.859,0,0,1-3.36,8.568c-.594,1.2-1.243,2.366-1.867,3.546-.038.07-.084.136-.152.247a.653.653,0,0,1-.035-.139c.018-.959.011-1.918.065-2.875.047-.841.174-1.674.241-2.52.054-.67.049-1.348.112-2.019.135-1.54.061-3.082.054-4.622A32.516,32.516,0,0,0,543,80.256a45.186,45.186,0,0,0-.81-4.584,29.627,29.627,0,0,0-.944-3.467,7.146,7.146,0,0,1-.277-1.023,9.28,9.28,0,0,0-.8-2.177c-.5-1.026-.945-2.078-1.419-3.115a5.593,5.593,0,0,0-.384-.723c-.095-.146-.124-.253,0-.394a1.161,1.161,0,0,0,.254-.831,9.8,9.8,0,0,0-.07-1.6c-.192-.932-.248-1.878-.389-2.814a8.37,8.37,0,0,0-1.874-4.165c-.27-.326-.533-.656-.781-1a2.387,2.387,0,0,0-1.088-.857,1.126,1.126,0,0,1-.616-.558,6.1,6.1,0,0,1-.61-1.8,22.363,22.363,0,0,0-1.6-4.868c-.3-.664-.57-1.346-.855-2.019a4.688,4.688,0,0,0-.277-.626c-.7-1.14-1.152-2.4-1.773-3.585a28.742,28.742,0,0,0-1.9-3.013c-1.25-1.785-2.5-3.578-3.8-5.331-.992-1.339-2.059-2.626-3.091-3.937-.976-1.24-1.981-2.455-3.073-3.594a10.218,10.218,0,0,1-1.181-1.421,9.633,9.633,0,0,0-1.485-1.562,8.906,8.906,0,0,1-.781-.773.711.711,0,0,0-.8-.262,3.806,3.806,0,0,0-.142.364.818.818,0,0,0,.071.661q1.473,2.573,2.944,5.147c.085.148.183.29.266.44.136.25.258.507.4.754.127.229.269.446.406.67.2.321.388.644.591.961.177.277.386.536.55.821a68.311,68.311,0,0,1,3.242,6.267c.356.8.8,1.562,1.2,2.351.167.335.3.689.453,1.033.4.911.824,1.81,1.188,2.733A32.06,32.06,0,0,1,525.4,47.1c.16.712.387,1.409.548,2.12.205.913.384,1.831.552,2.752a3.572,3.572,0,0,1-.167,1.785,1.861,1.861,0,0,1-.94,1.127,8.691,8.691,0,0,0-2.331,2c-.584.67-1.136,1.373-1.7,2.066a2.481,2.481,0,0,0-.511,1,2.506,2.506,0,0,1-1.227,1.621c-.419.254-.873.446-1.3.7q-2.471,1.44-4.93,2.9a10.108,10.108,0,0,1-2.035.972,6.438,6.438,0,0,0-1.708.856,14.872,14.872,0,0,1-2.245,1.166.473.473,0,0,1-.295.019c-.676-.163-1.349-.335-2.027-.5a.461.461,0,0,1-.266-.189,1.08,1.08,0,0,0-.373-.335c-.631-.261-1.27-.508-1.916-.729a2.727,2.727,0,0,1-.781-.3,1.1,1.1,0,0,0-1.1-.025,3.905,3.905,0,0,1-.356-.953c-.019-.059.037-.148.071-.216.241-.48.485-.959.726-1.438a3.906,3.906,0,0,0,.419-1.437,1.727,1.727,0,0,1,.058-.335.953.953,0,0,1,1.116-.67.66.66,0,0,1,.132.038,5.585,5.585,0,0,0,2.9.278c.7-.074,1.409-.146,2.108-.261a10.824,10.824,0,0,0,1.457-.363c.558-.173,1.1-.389,1.644-.587a3.847,3.847,0,0,0,1.393-.853c.615-.6,1.239-1.186,1.821-1.814a3.071,3.071,0,0,0,.828-2.619,1,1,0,0,1,.031-.4,8.728,8.728,0,0,0,.077-4.669c-.149-.585-.273-1.177-.4-1.768a4.328,4.328,0,0,0-.653-1.534,3.237,3.237,0,0,1-.3-.574,8.076,8.076,0,0,0-1.443-2.232c-.037-.044-.079-.081-.117-.125l-1.884-2.129a8.7,8.7,0,0,0-2.165-1.79,36.039,36.039,0,0,1-3.33-2.352,1.22,1.22,0,0,1-.491-1.137,19.65,19.65,0,0,0-.624-6.415,5.5,5.5,0,0,1-.166-.943,3.27,3.27,0,0,0-1.289-2.366c-.189-.15-.376-.3-.572-.436a12.283,12.283,0,0,1-1.752-1.482,4.081,4.081,0,0,0-1.021-.741q-1.2-.633-2.378-1.29a14.621,14.621,0,0,0-2.048-.951.568.568,0,0,1-.271-.183,3,3,0,0,0-1.688-1.159,9.487,9.487,0,0,0-2.538-.352c-1.426-.039-2.853-.081-4.281-.117-.617-.015-1.234-.015-1.851-.02-.376,0-.754-.023-1.128,0a2.147,2.147,0,0,0-1.679.991.571.571,0,0,1-.461.281c-.682.069-1.363.148-2.04.249a2.268,2.268,0,0,0-1.443.716.977.977,0,0,0-.09.1,22.222,22.222,0,0,1-2.138,2.485c-.95,1.082-1.987,2.088-2.831,3.26-.588.816-1.135,1.659-1.7,2.491-.1.151-.206.3-.335.478h-1.736c-1.623.013-3.236.121-4.858.257-2.141.18-4.266.474-6.381.85a62.1,62.1,0,0,0-7.612,1.848,2.339,2.339,0,0,0-1.756,2.061,1.116,1.116,0,0,0,.008.335c.068.369.137.74.223,1.1a1.179,1.179,0,0,0,.452.67c.385.282.79.538,1.192.8.249.161.5.314.759.462.434.251.867.506,1.31.741a67.06,67.06,0,0,0,6.826,3.007,38.356,38.356,0,0,0,4.946,1.6,4.646,4.646,0,0,1,.982.391A1.761,1.761,0,0,1,465.2,46a7.056,7.056,0,0,1,.112,3.59c-.127.591-.278,1.178-.4,1.77a5.378,5.378,0,0,0,.156,2.873,2.311,2.311,0,0,1,.112,1.079,1.868,1.868,0,0,0,.187,1.1,1.321,1.321,0,0,1,.012,1.124c-.28.772-.576,1.54-.832,2.321a5.356,5.356,0,0,0-.261,2.16,9.551,9.551,0,0,1-.038,1.128,7.465,7.465,0,0,0,.314,2.5,7.357,7.357,0,0,1,.233,1.171,1.107,1.107,0,0,1-.186.751c-.347.549-.691,1.1-1.041,1.647a1.273,1.273,0,0,0-.223.67c-.018.753-.031,1.506-.064,2.26a5.016,5.016,0,0,0,.691,2.886,1.992,1.992,0,0,1,.019,2.058,4.232,4.232,0,0,1-.909,1.166,2.746,2.746,0,0,0-.843,1.379,4.845,4.845,0,0,1-.348.776c-.243.528-.5,1.052-.724,1.586-.194.446-.375.908-.532,1.373-.18.529-.328,1.068-.485,1.6-.083.285-.136.579-.234.858a4.5,4.5,0,0,0-.281,1.264,3.328,3.328,0,0,1-.176.8,11.518,11.518,0,0,0-.568,2.95,4.605,4.605,0,0,1-.062.51,1.071,1.071,0,0,1-.595.793c-.251.133-.52.232-.781.348-.67.3-1.339.587-2,.9q-3.013,1.433-6.026,2.885c-.709.343-1.4.723-2.1,1.085a5.272,5.272,0,0,1-1.415.5,1.517,1.517,0,0,0-1.135,1.769.663.663,0,0,1-.352.811c-.06-.077-.126-.152-.182-.233a57.99,57.99,0,0,1-8.911-20.95q-.509-2.448-.8-4.935c-.18-1.543-.309-3.09-.363-4.644-.017-.51-.069-1.02-.106-1.53V66.571c.028-.335.06-.678.08-1.018.042-.741.055-1.484.122-2.222.128-1.421.249-2.844.44-4.257a54.186,54.186,0,0,1,1.274-6.371,58.425,58.425,0,0,1,32.8-38.636A57.337,57.337,0,0,1,484,9.689a50.86,50.86,0,0,1,6.377-.558,1.054,1.054,0,0,0,.223-.051h4.464a.979.979,0,0,0,.208.067c1.434.122,2.87.208,4.3.367a52.7,52.7,0,0,1,5.832,1.013A58.376,58.376,0,0,1,549.65,56.308c.377,1.952.644,3.919.825,5.9q.173,1.9.167,3.794a1.678,1.678,0,0,0,.051.292Z" transform="translate(-434.07 -9.12)" fill="#ffe200"/>
    <path id="Caminho_1577" data-name="Caminho 1577" d="M632.239,201.955c-.038-.385-.083-.768-.112-1.153-.07-.911-.128-1.821-.205-2.732-.029-.352-.118-.7-.143-1.05-.1-1.426-.309-2.837-.527-4.247q-.5-3.236-1.312-6.4a44.2,44.2,0,0,0-2.284-6.77,22.322,22.322,0,0,0-2.874-4.967,11.059,11.059,0,0,0-2.632-2.481,1.283,1.283,0,0,0-.77-.235c-.365.013-.731.021-1.095.04a3.815,3.815,0,0,1-1.219-.156c-.483-.133-.965-.27-1.451-.4a2.557,2.557,0,0,0-1.8.2,15.019,15.019,0,0,0-3.418,2.066,8.92,8.92,0,0,1-1.136.694c-.4.248-.781.518-1.175.763-.367.223-.745.439-1.116.654-.415.239-.831.474-1.248.711l-1.871,1.067c-.089.051-.187.087-.276.138a.83.83,0,0,0-.081,1.364,2.417,2.417,0,0,0,.446.242,21.516,21.516,0,0,1,4.859,3.051,26.6,26.6,0,0,1,2.1,2.111c.446.472.862.975,1.279,1.474a2.4,2.4,0,0,1,.326.521c.372.8.731,1.6,1.095,2.4.184.405.363.813.558,1.215a3.46,3.46,0,0,1,.373,1.55.9.9,0,0,0,.1.427,4.472,4.472,0,0,1,.446,1.394q.212,1.2.458,2.385a11.8,11.8,0,0,1,.223,2.316c.015,3.459.013,6.928.03,10.39a6.854,6.854,0,0,1-.245,1.962,3.992,3.992,0,0,0-.09,1.017,1.191,1.191,0,0,1-.166.646,1.253,1.253,0,0,0-.158.579c-.022.422.016.847-.013,1.269a4.055,4.055,0,0,1-.177,1.143,2.812,2.812,0,0,0,.223,2.376c.1.2.2.405.315.626-1.414,1.055-2.854,2.034-4.4,2.978.059-.3.112-.535.154-.772.478-2.465.973-4.927,1.425-7.4q.512-2.8.93-5.609.377-2.54.639-5.1c.089-.86.034-1.735.093-2.6a7.262,7.262,0,0,0-.3-2.12,32.178,32.178,0,0,0-1.986-6.182,18.5,18.5,0,0,0-3.362-5.176,16.509,16.509,0,0,0-4.406-3.309,30.947,30.947,0,0,0-5.4-2.13c-.152-.047-.307-.088-.458-.141a3.245,3.245,0,0,0-1.207-.2.442.442,0,0,1-.5-.249c.088-.057.172-.112.258-.165l15.546-9.161c.148-.087.3-.171.44-.267a.509.509,0,0,0,.189-.713,1.952,1.952,0,0,0-1.147-.969,1.06,1.06,0,0,0-.86.079q-2.678,1.409-5.363,2.814l-12.945,6.785-11.03,5.787-12.911,6.767q-5.5,2.882-11,5.768l-4.3,2.261c-.241.127-.48.263-.712.407a10.515,10.515,0,0,1-1.4.716c-.575.248-1.123.558-1.674.859-1.084.586-2.157,1.19-3.244,1.769-.558.3-1.134.539-1.686.835a15.191,15.191,0,0,0-1.407.845,6.028,6.028,0,0,1-1.251.7,24.48,24.48,0,0,0-2.592,1.234c-.335.174-.677.335-1.03.5a8.814,8.814,0,0,1-1.741-1.828,13.38,13.38,0,0,0-.868-1.146,7.86,7.86,0,0,1-1.02-1.5c-.112-.233-.168-.264-.558-.478a.772.772,0,0,1,.67-.781,5.392,5.392,0,0,0,1.661-.618c1.631-.919,3.357-1.649,5.037-2.472,1.239-.606,2.475-1.22,3.722-1.81.577-.272,1.178-.491,1.764-.743a1.861,1.861,0,0,0,1.067-1,2.488,2.488,0,0,0,.172-.728,12.115,12.115,0,0,1,.623-3.215,5.556,5.556,0,0,0,.145-.736c.069-.345.132-.691.215-1.033.078-.32.2-.632.267-.954a10.211,10.211,0,0,1,.542-1.762c.24-.58.446-1.174.682-1.755a4.552,4.552,0,0,1,.39-.8,4.341,4.341,0,0,0,.558-1.278,1.541,1.541,0,0,1,.446-.715,6.077,6.077,0,0,0,1.148-1.4,2.825,2.825,0,0,0-.018-2.9,3.518,3.518,0,0,1-.519-1.4c-.045-.508-.039-1.024-.037-1.537q0-.838.049-1.674a.91.91,0,0,1,.142-.407c.354-.585.73-1.156,1.077-1.743a2.33,2.33,0,0,0,.174-1.665,2.887,2.887,0,0,0-.112-.464,7.21,7.21,0,0,1-.346-2.971,6.787,6.787,0,0,0,0-.893,5.591,5.591,0,0,1,.391-2.245c.223-.61.463-1.215.67-1.831a4.646,4.646,0,0,0,.173-.834,1.116,1.116,0,0,0-.139-.7,2.092,2.092,0,0,1-.2-1.062,3.257,3.257,0,0,0-.112-1.044,5.342,5.342,0,0,1-.064-3.135,13.962,13.962,0,0,0,.482-2.692,6.981,6.981,0,0,0-.433-2.858,2.3,2.3,0,0,0-1.152-1.261,4.5,4.5,0,0,0-1.017-.4,44.613,44.613,0,0,1-5.994-2.009,60.075,60.075,0,0,1-6.225-2.829c-.261-.138-.507-.307-.76-.461s-.487-.3-.731-.446c-.273-.163-.558-.314-.821-.492a2.156,2.156,0,0,1-.425-.394c-.162-.19-.142-.253.03-.435a8.091,8.091,0,0,1,3.2-2.12c.223-.081.446-.175.67-.266a13.122,13.122,0,0,1,3.254-.758c.966-.128,1.936-.117,2.9-.2.5-.041.994-.143,1.493-.2.408-.045.819-.078,1.228-.085,1.085-.02,2.17-.05,3.255-.022.82.022,1.64.112,2.455.2a25.064,25.064,0,0,0,2.668.125,16.993,16.993,0,0,1,3.267.306c1.7.345,3.4.7,5.1,1.024.683.132,1.374.23,2.066.31a12.479,12.479,0,0,1,2.265.518,29.26,29.26,0,0,0,3.721,1.036,11.625,11.625,0,0,1,2.232.656c.233.091.474.163.713.237,1.308.4,2.625.781,3.922,1.205a18.812,18.812,0,0,1,3.536,1.457,18.122,18.122,0,0,0,2.506,1.169,2.509,2.509,0,0,1,.425.223,42.018,42.018,0,0,0,3.84,2.106,16.9,16.9,0,0,1,2.9,1.817q1.46,1.138,2.886,2.32a13.658,13.658,0,0,1,2.79,3.134c.536.837,1.107,1.65,1.658,2.477a3.39,3.39,0,0,1,.639,1.785,2.375,2.375,0,0,1-.67,1.779c-.584.612-1.193,1.2-1.8,1.785a2.991,2.991,0,0,1-1.07.663c-.67.244-1.346.5-2.031.72a7.241,7.241,0,0,1-1.236.259c-.792.1-1.587.2-2.384.252a4.6,4.6,0,0,1-1.984-.257,1.66,1.66,0,0,0-2.293,1.511,3.324,3.324,0,0,1-.335,1.18c-.223.446-.446.9-.67,1.347a1.6,1.6,0,0,1-.558.639,4.429,4.429,0,0,1-.616.369A29.066,29.066,0,0,0,586.355,170c-.545.335-1.116.612-1.674.922a1.849,1.849,0,0,0-.446.3,10.566,10.566,0,0,1-1.981,1.576c-1.048.67-2.05,1.412-3.035,2.174a30.843,30.843,0,0,1-4.62,3A22.771,22.771,0,0,1,572,179.1c-.362.134-.7.328-1.053.484-.582.26-1.163.522-1.754.76a3.209,3.209,0,0,1-.6.112.64.64,0,0,0-.6.7,2.788,2.788,0,0,0,.374,1.234c.112.223.268.424.4.637.076.123.142.251.223.4a1.757,1.757,0,0,1-.252.09,4.687,4.687,0,0,0-1.492.571,3.3,3.3,0,0,1-1.1.459.446.446,0,0,1-.09-.01c-.017-.218-.025-.446-.055-.664a5.688,5.688,0,0,0-.335-1.5,1.6,1.6,0,0,0-1.464-1.018c-.67-.038-1.348-.017-2.022,0a1.4,1.4,0,0,0-1.239.79,2.145,2.145,0,0,0-.165.374c-.348,1.086-.712,2.167-1.029,3.263a5.208,5.208,0,0,0-.172,1.283,18.359,18.359,0,0,0,.045,1.951,1.013,1.013,0,0,0,1.165.976,4,4,0,0,0,1.259-.3c1.04-.42,2-.989,3-1.5.172-.089.349-.17.518-.263.508-.282,1.026-.55,1.517-.859a26.242,26.242,0,0,1,2.714-1.451c1.785-.855,3.552-1.77,5.331-2.649,1.166-.577,2.343-1.125,3.508-1.7.755-.375,1.491-.792,2.244-1.172a11.885,11.885,0,0,1,1.253-.546,25.086,25.086,0,0,0,2.514-1.157c1.582-.788,3.175-1.556,4.763-2.331,1.793-.876,3.613-1.7,5.356-2.678a5.1,5.1,0,0,1,.893-.345,7.405,7.405,0,0,0,1.144-.536c.893-.48,1.81-.915,2.711-1.382.5-.257.988-.524,1.462-.818a7.555,7.555,0,0,1,1.623-.8,10.173,10.173,0,0,0,2.21-1.076c1.812-1.127,3.628-2.247,5.543-3.2a4.4,4.4,0,0,0,1.5-1.116,3.379,3.379,0,0,0,.6-1.144,2.781,2.781,0,0,1,.335-.742,20.2,20.2,0,0,1,2.6-3.026,8.108,8.108,0,0,1,1.81-1.288.883.883,0,0,0,.5-.608,1.464,1.464,0,0,1,.112-.323,4.581,4.581,0,0,0,.223-2.981c-.349-1.711-.72-3.417-1.2-5.094-.231-.8-.547-1.571-.82-2.358a29.817,29.817,0,0,0-1.269-3.029c-.234-.493-.418-1.011-.632-1.515a11.8,11.8,0,0,0-.5-1.125c-.647-1.169-1.205-2.38-1.77-3.591-.849-1.822-1.828-3.578-2.84-5.313-.321-.549-.706-1.06-1.051-1.595-.123-.191-.213-.4-.319-.6-.079-.152-.154-.306-.239-.453q-1.3-2.256-2.6-4.513a.192.192,0,0,1-.02-.129,4.823,4.823,0,0,1,1.184,1.206,9.944,9.944,0,0,0,1.268,1.515c1.339,1.4,2.514,2.929,3.734,4.427,2.168,2.659,4.147,5.457,6.109,8.268a28.182,28.182,0,0,1,2.656,4.592c.088.2.15.405.234.6.068.157.147.309.223.459.223.412.472.81.662,1.234.461,1.031.9,2.072,1.339,3.113a21.739,21.739,0,0,1,1.309,4.421,5.186,5.186,0,0,0,.774,1.812,1.429,1.429,0,0,0,.4.364,1.94,1.94,0,0,0,.4.2,1.709,1.709,0,0,1,.719.558c.315.407.632.812.955,1.212a7.993,7.993,0,0,1,1.712,4.436,13.332,13.332,0,0,0,.258,1.759,8.809,8.809,0,0,1,.077,1.945.642.642,0,0,1-.144.3.907.907,0,0,0,0,1.137,4.688,4.688,0,0,1,.348.663c.475,1.036.924,2.086,1.425,3.11a8.308,8.308,0,0,1,.781,2.18,5.653,5.653,0,0,0,.25.893,35.466,35.466,0,0,1,1.094,4.129,45.173,45.173,0,0,1,.81,5.313c.049.475.021.96.059,1.437.136,1.674.071,3.359.052,5.036-.015,1.173-.153,2.343-.243,3.516-.059.773-.145,1.546-.191,2.319-.029.5.007,1-.013,1.508-.031.8-.084,1.6-.132,2.394a1.228,1.228,0,0,1-.21.642c-.127.186-.241.384-.36.576Zm-65.428-43.967a6.917,6.917,0,0,0-.635.434.724.724,0,0,0-.147,1.013,3.9,3.9,0,0,0,.325.441,5.908,5.908,0,0,0,2.009,1.451c.48.237.959.478,1.438.716a1.691,1.691,0,0,1,.693.632,2.464,2.464,0,0,0,2.265,1.164c.651,0,1.3-.016,1.951-.025.5-.008,1,.01,1.508-.026a2.672,2.672,0,0,0,2.53-1.962c.05-.152.1-.3.145-.456a12.705,12.705,0,0,1,.829-2.17,5.635,5.635,0,0,1,2.223-2.406,1.206,1.206,0,0,0,.684-1.165c-.007-.32-.022-.639-.021-.959,0-1.154.02-2.308.019-3.459a4.416,4.416,0,0,1,.211-1.414,2.64,2.64,0,0,0-.482-2.607,7.675,7.675,0,0,0-.757-.791,12,12,0,0,0-3.946-2.352,27.8,27.8,0,0,0-8.914-1.645,40.418,40.418,0,0,0-4.24.112,24.023,24.023,0,0,0-3.96.569,8.756,8.756,0,0,0-2.525.93,1.062,1.062,0,0,0-.594.893c-.041.694-.085,1.388-.086,2.083a.78.78,0,0,0,.705.8,1.15,1.15,0,0,0,.446-.013c.256-.056.5-.142.757-.213.493-.142.985-.286,1.48-.422a.789.789,0,0,1,.657.089,1.28,1.28,0,0,0,.5.223c.259.028.346.181.413.387a11.18,11.18,0,0,0,.377,1.1.833.833,0,0,1-.071.838c-.368.629-.729,1.264-1.072,1.908a15.76,15.76,0,0,1-1.332,2.232,1.982,1.982,0,0,0-.231.418.856.856,0,0,0,.413,1.158,1.86,1.86,0,0,0,.384.141,9.026,9.026,0,0,1,3.657,1.707,2.355,2.355,0,0,0,1.388.527,7.013,7.013,0,0,0,.716-.03C566.633,157.832,566.769,157.81,566.811,157.988Zm19.138-1.465h.026c.04.5.047,1,.128,1.5a3.361,3.361,0,0,0,1.019,1.861,1.413,1.413,0,0,0,1.406.418c.21-.055.425-.089.635-.143a3.749,3.749,0,0,0,2.6-2.085c.259-.545.575-1.061.844-1.6a1.284,1.284,0,0,0,.133-.558c0-.479-.021-.959-.064-1.435a4.6,4.6,0,0,0-.17-.9,5.194,5.194,0,0,0-1.134-1.814,1.674,1.674,0,0,0-1.227-.58,5.12,5.12,0,0,0-2.038.373,4.133,4.133,0,0,0-1.31.653,1.161,1.161,0,0,0-.491.971,4.185,4.185,0,0,1-.158,1.147,6.3,6.3,0,0,0-.193.935c-.038.416-.012.839-.012,1.261Zm-22.576,8.912c.368-.021.893-.039,1.415-.085.488-.042.977-.1,1.46-.176a1.064,1.064,0,0,0,1-1.07.827.827,0,0,0-.544-.984,5.157,5.157,0,0,0-.7-.272q-1.356-.415-2.717-.811a3.116,3.116,0,0,0-.538-.094,5.2,5.2,0,0,0-2.644.566.938.938,0,0,0-.549.813,1.245,1.245,0,0,0,.684,1.339A6.037,6.037,0,0,0,563.373,165.434Z" transform="translate(-524.972 -111.838)" fill="#010101"/>
    <path id="Caminho_1578" data-name="Caminho 1578" d="M1170.6,594.042a1.957,1.957,0,0,1-.178-1.575,4.551,4.551,0,0,0,.271-1.579V590.1a1.616,1.616,0,0,1,.184-.883,1.46,1.46,0,0,0,.125-.761,2.355,2.355,0,0,1,.076-.846,6.078,6.078,0,0,0,.26-1.957c-.012-2.9,0-5.8,0-8.711,0-.67,0-1.349-.011-2.023a13.785,13.785,0,0,0-.385-2.982c-.154-.642-.223-1.3-.366-1.95-.088-.4-.248-.781-.372-1.171a1.567,1.567,0,0,1-.112-.423,3.516,3.516,0,0,0-.306-1.395c-.577-1.293-1.152-2.587-1.758-3.866a4.393,4.393,0,0,0-.7-1.05c-.893-.994-1.786-1.989-2.735-2.93a17.565,17.565,0,0,0-3.559-2.548c-.647-.383-1.339-.7-2-1.049-.1-.054-.2-.126-.354-.223.174-.091.283-.145.388-.2l1.756-1c.566-.32,1.135-.633,1.7-.961.324-.189.635-.4.952-.6.366-.231.722-.483,1.1-.687a8.1,8.1,0,0,0,1.506-1,10.082,10.082,0,0,1,2.1-1.284c.214-.112.43-.214.642-.325a2.153,2.153,0,0,1,1.69-.181c.382.118.768.223,1.151.335a4.384,4.384,0,0,0,1.522.183c.251-.012.5.007.753-.021a1.308,1.308,0,0,1,.945.307,11.833,11.833,0,0,1,2.781,2.956,25.77,25.77,0,0,1,2.653,5.133,49.582,49.582,0,0,1,2.183,7.2c.49,2.126.859,4.275,1.152,6.436.1.734.146,1.476.223,2.214.038.352.112.7.145,1.051.035.306.045.614.068.921.05.648.1,1.3.154,1.945.047.626.1,1.252.125,1.879a.742.742,0,0,1-.161.4q-1.483,2.166-3.16,4.185a58.385,58.385,0,0,1-10.155,9.624C1170.811,593.9,1170.718,593.959,1170.6,594.042Z" transform="translate(-1077.819 -488.784)" fill="#ffe200"/>
    <path id="Caminho_1579" data-name="Caminho 1579" d="M626.653,700.518h-.4c-1.257.006-2.514.007-3.772.017a6.66,6.66,0,0,0-.817.056.713.713,0,0,1-.781-.473c-.286-.558-.59-1.108-.884-1.663a34.2,34.2,0,0,1-3.013-8.087c-.2-.853-.3-1.731-.459-2.6a9.237,9.237,0,0,0-.292-1.339,3.878,3.878,0,0,1-.176-1.822,2.029,2.029,0,0,0-.193-1.2.335.335,0,0,1,0-.349.623.623,0,0,0-.085-.761c-.1-.125-.185-.261-.286-.385a.574.574,0,0,0-.732-.171,6.87,6.87,0,0,1-.736.261,1.324,1.324,0,0,0-.8.488.871.871,0,0,1-.818.392.978.978,0,0,0-.981.706,2.073,2.073,0,0,0-.1.4c-.129.984-.247,1.97-.383,2.953a7.163,7.163,0,0,0,.037,1.776c.09.817.168,1.635.264,2.455.112.93.223,1.859.357,2.79a5.009,5.009,0,0,0,.492,1.49q.7,1.432,1.413,2.852a10.068,10.068,0,0,0,1.467,2.207c-.4-.017-.739.19-1.1-.048a1.19,1.19,0,0,0-.295-.8,42.241,42.241,0,0,1-2.232-3.77,20.606,20.606,0,0,1-2.206-6.661,17.814,17.814,0,0,1-.089-3.931,2.641,2.641,0,0,0,.009-.376.715.715,0,0,0-1.05-.552,1.506,1.506,0,0,0-.828,1.358c.027.925.012,1.852,0,2.778-.006.663-.051,1.325-.042,1.986a8.563,8.563,0,0,0,.446,2.52,23.414,23.414,0,0,0,2.377,5.3c.04.064.074.131.152.27-.15-.075-.223-.112-.3-.153a60.627,60.627,0,0,1-5.383-3.389.58.58,0,0,1-.282-.5c-.012-.376-.055-.751-.087-1.127a9.921,9.921,0,0,1,.212-2.616,11.427,11.427,0,0,0,.048-3.784,4.549,4.549,0,0,0-.694-1.81,1.443,1.443,0,0,0-1.4-.752,1.674,1.674,0,0,0-.7.233,8.5,8.5,0,0,0-1.751,1.25c-.238.253-.462.211-.641-.086-.112-.185-.2-.383-.3-.577a21.992,21.992,0,0,0,2.91-1.493,3.95,3.95,0,0,1,1.2-.487.7.7,0,0,0,.364-.176,7.038,7.038,0,0,1,2.026-1.19c.548-.253,1.085-.531,1.618-.813.938-.5,1.866-1,2.8-1.505,1-.531,2.045-1.013,3.033-1.581,1.812-1.042,3.714-1.9,5.555-2.889,1.785-.951,3.578-1.871,5.365-2.81.757-.4,1.507-.809,2.26-1.211a2.983,2.983,0,0,1,.464-.223,13.874,13.874,0,0,0,3.04-1.456,52.881,52.881,0,0,1,4.7-2.525c.613-.3,1.2-.662,1.794-1,.269-.15.535-.306.807-.446,1.219-.646,2.467-1.227,3.708-1.833a34.5,34.5,0,0,0,3.931-2.234,5.692,5.692,0,0,1,.853-.426c.308-.136.627-.251,1.013-.4-.112.112-.162.174-.223.223a9.822,9.822,0,0,1-2.107,1.456,3.641,3.641,0,0,0-1.109.907,9.086,9.086,0,0,1-1.885,1.59,42.819,42.819,0,0,0-3.549,2.634c-1.384,1.1-2.79,2.178-4.264,3.165-.691.462-1.31,1.03-1.972,1.537-1.514,1.159-3.029,2.321-4.556,3.459-1.958,1.469-3.914,2.932-5.8,4.494a1.9,1.9,0,0,0-.753,1.6c.026,1.143.032,2.285.035,3.428,0,.455-.051.913-.042,1.368a4,4,0,0,0,.125,1.116,13.45,13.45,0,0,1,.446,2,16.093,16.093,0,0,0,1.546,4.694,26.771,26.771,0,0,0,2.064,3.587,19.894,19.894,0,0,0,2.281,2.553C626.541,700.414,626.57,700.441,626.653,700.518Z" transform="translate(-580.444 -587.909)" fill="#010101"/>
    <path id="Caminho_1580" data-name="Caminho 1580" d="M862.133,151.231c-.324-.389-.613-.743-.908-1.09a2.2,2.2,0,0,0-.316-.312,5.867,5.867,0,0,1-.816-.874,7.417,7.417,0,0,0-.909-.925,43.706,43.706,0,0,0-7-4.538,83.176,83.176,0,0,0-12.164-5.273c-1.519-.524-3.06-.988-4.6-1.463-.335-.1-.693-.133-1.037-.211-.411-.094-.822-.189-1.228-.308a21.02,21.02,0,0,0-3.125-.744c-1.018-.138-2.044-.21-3.067-.311a4.559,4.559,0,0,1-.946-.169l1.068-.167a24.889,24.889,0,0,1,4.276-.126c.446,0,.893-.014,1.339-.021.355,0,.711-.038,1.062-.011a9.282,9.282,0,0,0,2.519-.181c.973-.193,1.956-.345,2.924-.558a7.61,7.61,0,0,0,2.505-1.068,9.028,9.028,0,0,1,1.062-.55,2.821,2.821,0,0,0,1.579-2.256,1.442,1.442,0,0,0-.046-.541c-.084-.355-.187-.705-.291-1.055a6.375,6.375,0,0,0-2.09-3.111c-.05-.041-.1-.087-.154-.136a10.171,10.171,0,0,1,2.157.865c1.015.547,2.031,1.091,3.037,1.652a2.833,2.833,0,0,1,.588.465,15.776,15.776,0,0,0,1.912,1.61,9.141,9.141,0,0,1,.716.584,2.421,2.421,0,0,1,.781,1.48c.139.82.335,1.631.492,2.448a17.2,17.2,0,0,1,.335,4.563,7.187,7.187,0,0,0-.009.821,1.571,1.571,0,0,0,.469,1.074,3.6,3.6,0,0,0,.354.324,37.439,37.439,0,0,0,3.591,2.513,7.015,7.015,0,0,1,1.7,1.423c.743.835,1.515,1.647,2.232,2.505a7.094,7.094,0,0,1,1.116,1.762,7.157,7.157,0,0,0,.446.845A3.134,3.134,0,0,1,862.133,151.231Z" transform="translate(-782.282 -112.309)" fill="#010101"/>
    <path id="Caminho_1581" data-name="Caminho 1581" d="M868.946,800.369c-.065.1-.129.205-.2.307a44.651,44.651,0,0,0-3.98,7.291,36.033,36.033,0,0,0-2.252,7.7,53.9,53.9,0,0,0-.753,6.732,2.024,2.024,0,0,1-.025.272c-.045.323-.112.386-.431.411a1.639,1.639,0,0,0-1,.468c-.234.215-.488.41-.725.622a.978.978,0,0,0-.264.306.388.388,0,0,1-.439.237c-.223-.011-.454-.037-.681-.037q-2.567-.012-5.143-.017H852.8c.128-.144.223-.258.335-.369a.712.712,0,0,0,.215-.624,1.748,1.748,0,0,1,.2-1.058,4.031,4.031,0,0,0,.255-.6,3.055,3.055,0,0,1,1.044-1.451,5.894,5.894,0,0,1,2.814-1.474,1.17,1.17,0,0,0,.819-.629,4.941,4.941,0,0,0,.416-.969,11.742,11.742,0,0,0,.411-2.595,9.168,9.168,0,0,1,.536-2.5,17.407,17.407,0,0,1,1.116-2.94,23.523,23.523,0,0,1,3.083-4.557c.17-.185.358-.353.53-.536.281-.3.57-.591.829-.908a3.42,3.42,0,0,1,.767-.723,3.387,3.387,0,0,0,.669-.587,14.173,14.173,0,0,1,1.941-1.773.554.554,0,0,1,.112-.056Z" transform="translate(-806.073 -712.055)" fill="#010101"/>
    <path id="Caminho_1582" data-name="Caminho 1582" d="M904.47,536.007c.106-.083.21-.169.319-.248l3.895-2.8c1.421-1.017,2.849-2.022,4.26-3.051.739-.538,1.441-1.125,2.171-1.674.67-.508,1.368-.991,2.048-1.492.46-.335.909-.691,1.364-1.034a4.125,4.125,0,0,1,.365-.254.388.388,0,0,1,.5.042,1.292,1.292,0,0,0,.615.269c.446.118.893.275,1.329.43.264.094.52.214.832.345a2.532,2.532,0,0,1-.259.319,5.468,5.468,0,0,1-1.88,1.092,9.4,9.4,0,0,0-2.5,1.244,11.275,11.275,0,0,1-1.042.585q-.7.385-1.411.764-.558.3-1.116.593l-6.341,3.3q-1.339.7-2.678,1.382c-.15.077-.306.139-.46.21Z" transform="translate(-851.977 -467.809)" fill="#010101"/>
    <path id="Caminho_1583" data-name="Caminho 1583" d="M834.435,122.875c-.078.051-.123.084-.17.112a5.78,5.78,0,0,0-1.855,1.794c-.3.446-.589.893-.893,1.339a4.307,4.307,0,0,1-1.674,1.527c-.192.093-.367.218-.558.335a.71.71,0,0,1,.184-.681,2.3,2.3,0,0,0,.51-.991,12.7,12.7,0,0,1,1.087-2.651,4.521,4.521,0,0,1,.893-1.081.437.437,0,0,1,.435-.126c.421.1.845.18,1.269.267C833.9,122.769,834.144,122.817,834.435,122.875Z" transform="translate(-785.163 -109.826)" fill="#010101"/>
    <path id="Caminho_1584" data-name="Caminho 1584" d="M733.5,298.778c-.04-.174-.176-.153-.3-.147a7.015,7.015,0,0,1-.716.03,2.355,2.355,0,0,1-1.388-.527,9.026,9.026,0,0,0-3.657-1.707,1.858,1.858,0,0,1-.384-.141.856.856,0,0,1-.413-1.158,1.982,1.982,0,0,1,.231-.418,15.755,15.755,0,0,0,1.332-2.232c.344-.644.7-1.279,1.072-1.908a.832.832,0,0,0,.071-.838,11.183,11.183,0,0,1-.377-1.1c-.067-.206-.154-.359-.413-.387a1.28,1.28,0,0,1-.5-.223.789.789,0,0,0-.657-.089c-.494.136-.986.28-1.48.422-.252.071-.5.157-.757.213a1.149,1.149,0,0,1-.446.013.78.78,0,0,1-.705-.8c0-.7.045-1.389.086-2.083a1.063,1.063,0,0,1,.594-.893,8.753,8.753,0,0,1,2.525-.93,24.024,24.024,0,0,1,3.96-.569,38.725,38.725,0,0,1,4.24-.112,27.8,27.8,0,0,1,8.914,1.645,11.942,11.942,0,0,1,3.946,2.352,7.673,7.673,0,0,1,.757.791,2.641,2.641,0,0,1,.482,2.607,4.415,4.415,0,0,0-.211,1.414c0,1.154-.015,2.308-.019,3.459,0,.319.014.638.021.959a1.206,1.206,0,0,1-.684,1.165A5.607,5.607,0,0,0,746.409,300a12.7,12.7,0,0,0-.829,2.17c-.048.152-.095.3-.145.456a2.669,2.669,0,0,1-2.53,1.962c-.5.036-1,.018-1.508.026-.651.009-1.3.023-1.951.025a2.467,2.467,0,0,1-2.265-1.164,1.69,1.69,0,0,0-.693-.642c-.48-.239-.958-.48-1.438-.716a5.766,5.766,0,0,1-2.009-1.451,3.9,3.9,0,0,1-.325-.441.724.724,0,0,1,.147-1.013A6.932,6.932,0,0,1,733.5,298.778ZM742.409,291c-.027-.5-.046-.935-.077-1.372a.376.376,0,0,0-.1-.211c-.251-.263-.5-.537-.771-.773a1.851,1.851,0,0,0-1.24-.42c-.685,0-1.369.025-2.054.02a5.645,5.645,0,0,0-1.655.211,3.669,3.669,0,0,1-1.386.143c-.477-.042-.957-.032-1.437-.032-.286,0-.335.048-.384.325a5.241,5.241,0,0,0-.06.577.7.7,0,0,0,.3.616,3.407,3.407,0,0,1,.522.491,10.294,10.294,0,0,0,3.158,2.246c.042.025.112,0,.2-.007l-.054-.155a.959.959,0,0,1,.6-1.4,6.948,6.948,0,0,1,2.532-.5,1.617,1.617,0,0,0,.372-.043,1.751,1.751,0,0,1,1.228.147c.087.042.179.079.3.137Zm-5.9,7.606-.029.085a1.273,1.273,0,0,0,.223.2,20.013,20.013,0,0,0,1.84.971,2.294,2.294,0,0,0,2.74-.608,6.894,6.894,0,0,1,.736-.661.635.635,0,0,0,.258-.687c-.306.122-.591.235-.877.347a5.914,5.914,0,0,1-2.5.441c-.8-.049-1.6-.061-2.389-.088Z" transform="translate(-691.664 -252.628)" fill="#fefefe"/>
    <path id="Caminho_1585" data-name="Caminho 1585" d="M980.405,367.264c0-.422-.026-.845.008-1.262a6.293,6.293,0,0,1,.193-.935,4.187,4.187,0,0,0,.158-1.147,1.161,1.161,0,0,1,.491-.971,4.2,4.2,0,0,1,1.31-.653,5.12,5.12,0,0,1,2.038-.373,1.674,1.674,0,0,1,1.228.58,5.128,5.128,0,0,1,1.134,1.814,4.6,4.6,0,0,1,.17.9c.042.476.064.956.064,1.435a1.285,1.285,0,0,1-.133.558c-.269.54-.585,1.057-.844,1.6a3.738,3.738,0,0,1-2.6,2.085c-.21.054-.425.088-.635.143a1.4,1.4,0,0,1-1.406-.418,3.361,3.361,0,0,1-1.019-1.861c-.081-.492-.088-1-.128-1.5Z" transform="translate(-919.43 -322.582)" fill="#fefefe"/>
    <path id="Caminho_1586" data-name="Caminho 1586" d="M747.708,461.818a6.086,6.086,0,0,1-3.135-.769,1.253,1.253,0,0,1-.684-1.339.938.938,0,0,1,.549-.813,5.2,5.2,0,0,1,2.644-.566,3.118,3.118,0,0,1,.538.094q1.361.4,2.717.811a5.16,5.16,0,0,1,.7.269.825.825,0,0,1,.543.984,1.061,1.061,0,0,1-1,1.07c-.483.08-.972.134-1.46.176C748.6,461.779,748.076,461.8,747.708,461.818Z" transform="translate(-709.307 -408.221)" fill="#fefefe"/>
    <path id="Caminho_1587" data-name="Caminho 1587" d="M815.788,331.126c-.126-.058-.218-.095-.306-.141a1.751,1.751,0,0,0-1.227-.147,1.62,1.62,0,0,1-.373.044,6.946,6.946,0,0,0-2.532.5.959.959,0,0,0-.6,1.4l.054.155c-.085,0-.157.031-.2.007a10.294,10.294,0,0,1-3.158-2.246,3.4,3.4,0,0,0-.522-.491.7.7,0,0,1-.3-.616,5.27,5.27,0,0,1,.06-.577c.048-.277.1-.324.384-.325.48,0,.961-.01,1.437.032a3.668,3.668,0,0,0,1.386-.143,5.646,5.646,0,0,1,1.655-.211c.685,0,1.369-.025,2.054-.02a1.851,1.851,0,0,1,1.24.42c.275.237.52.51.771.773a.376.376,0,0,1,.1.211C815.742,330.191,815.761,330.629,815.788,331.126Z" transform="translate(-765.045 -292.762)" fill="#010101"/>
    <path id="Caminho_1588" data-name="Caminho 1588" d="M835.67,415.793c.794.027,1.591.039,2.386.085a5.915,5.915,0,0,0,2.5-.441c.286-.112.571-.223.877-.347a.635.635,0,0,1-.258.687,6.9,6.9,0,0,0-.737.661,2.294,2.294,0,0,1-2.74.608c-.637-.268-1.228-.639-1.84-.971a1.27,1.27,0,0,1-.223-.2Z" transform="translate(-790.828 -369.823)" fill="#010101"/>
  </g>
</svg>
