<svg xmlns="http://www.w3.org/2000/svg" width="29.719" height="26.221" viewBox="0 0 29.719 26.221">
  <g id="Layer_2" data-name="Layer 2" transform="translate(-0.001 0.002)">
    <g id="Layer_1" data-name="Layer 1" transform="translate(0.001 -0.002)">
      <path id="Caminho_1589" data-name="Caminho 1589" d="M252.582,2.524c.523-.424,1.348-.567,1.7.2a1.326,1.326,0,0,1-.1,1.1c-2.849,3.653-3.219,2.888-4.315,3.416a1.945,1.945,0,0,0-1.347.8l-2.588,5.276a1.453,1.453,0,0,0-1.488-.764l2.505-5.285c.324-1.971-2.069-2.818.648-6.983.6-.445,1.322-.374,1.446.3V.813a1.38,1.38,0,0,0-.549,1.611,4,4,0,0,0-.5,2.045c.405.641.8,1.2,2.344,1.047.374-.123.773-.341,1.4-1.4A1.611,1.611,0,0,1,252.582,2.524Z" transform="translate(-224.634 0.002)" fill="#5689e3"/>
      <path id="Caminho_1590" data-name="Caminho 1590" d="M24.147,186.621c1.162.822,1.441,1.292.681,1.418l-2.836.454c.168.4.258.783-1.191.793q-.53.833-2.1.227a2.448,2.448,0,0,0-1.078.624,1.414,1.414,0,0,1-1.251.4l-1.811-.454c-.865.515-1.7.831-2.381.284-.648-.463-1.138-.081-1.655.17-.81-.515-1.332-.588-1.634-.34.109.449-.718.42-1.645.34-.464.419-.979.444-1.417-.454a2.535,2.535,0,0,0-2.1-.34c-.362.309-.908.1-1.474-.17-2.284-.28-2.494-.961-2.1-1.757a4.048,4.048,0,0,1,.793-1.7,1.682,1.682,0,0,1,1.787-.2,1.674,1.674,0,0,1,1.066-.957,3.07,3.07,0,0,0,1.656-1.2,4.185,4.185,0,0,1,1.587-1.248c.081-.421.207-.768.486-.878A9.641,9.641,0,0,0,9.807,179.7l1.3-.324a3.148,3.148,0,0,1,2.82.106L12.837,182.2a2.188,2.188,0,0,0-.153.648c-.27,3.448.515,5.277,1.532,6.75a.7.7,0,0,0,.664.293,13.886,13.886,0,0,0,5.284-2.152,1.459,1.459,0,0,0,.39-.356c.805-1.064,1.54-2.064,2.087-2.9a1.749,1.749,0,0,1,.156.162A4.78,4.78,0,0,0,24.147,186.621Z" transform="translate(-0.001 -164.593)" fill="#5689e3"/>
      <path id="Caminho_1591" data-name="Caminho 1591" d="M294.25,10.06l3.542,1.71a1.615,1.615,0,0,0-.848,1.6,27.912,27.912,0,0,0-3.241-1.7A1.379,1.379,0,0,1,294.25,10.06Z" transform="translate(-269.844 -9.245)" fill="#5689e3"/>
      <path id="Caminho_1592" data-name="Caminho 1592" d="M165.849,188.775c-.549.84-1.282,1.84-2.087,2.9a1.458,1.458,0,0,1-.39.356,13.886,13.886,0,0,1-5.284,2.152.7.7,0,0,1-.664-.293c-1.018-1.473-1.8-3.3-1.532-6.75a2.188,2.188,0,0,1,.153-.648l1.086-2.714c.243.091.514.2.815.333.554.5,1.238.541,1.588,1.758.517.719.844.789,1.134.737.343-.181.907.351,1.531,1.078.234.371.494.729,1.531.784A2.287,2.287,0,0,1,165.849,188.775Z" transform="translate(-143.211 -168.889)" fill="#5689e3"/>
      <path id="Caminho_1593" data-name="Caminho 1593" d="M177.667,154.818a1.458,1.458,0,0,1,1.488.764l.019.036-.948,1.9a11.155,11.155,0,0,1,3.043,2.169.887.887,0,0,1,.126.84,8.974,8.974,0,0,1-.9,1.632,2.291,2.291,0,0,0-2.119-.306c-1.037-.053-1.3-.412-1.531-.784-.625-.729-1.189-1.258-1.531-1.078-.29.053-.617-.018-1.134-.737-.35-1.215-1.034-1.259-1.588-1.758-.3-.132-.567-.243-.815-.333l.486-1.215a1.07,1.07,0,0,1,1.047-.349,10.939,10.939,0,0,1,3.193,1.2l1.126-1.971Z" transform="translate(-157.861 -142.269)" fill="#5689e3"/>
      <path id="Caminho_1594" data-name="Caminho 1594" d="M177.673,154.89l.013-.027h-.038l-1.122,1.97a10.938,10.938,0,0,0-3.192-1.2,1.07,1.07,0,0,0-1.047.349L171.8,157.2l8.719,5a8.871,8.871,0,0,0,.9-1.632.886.886,0,0,0-.126-.84,11.155,11.155,0,0,0-3.043-2.169l.948-1.9-.019-.036-.006.011Z" transform="translate(-157.88 -142.314)" fill="#5689e3"/>
      <path id="Caminho_1595" data-name="Caminho 1595" d="M254.131,2.731c-.348-.767-1.172-.623-1.7-.2l-.848,1.6c-.623,1.053-1.022,1.273-1.4,1.4-1.546.15-1.937-.405-2.344-1.047a3.966,3.966,0,0,1,.5-2.045,1.38,1.38,0,0,1,.549-1.611V.586c-.124-.673-.849-.742-1.446-.3-2.718,4.165-.324,5.012-.648,6.983l-2.505,5.285-.013.027,1.5.749.006-.011,2.588-5.276a1.945,1.945,0,0,1,1.347-.8c1.1-.528,1.466.237,4.315-3.416a1.326,1.326,0,0,0,.1-1.1Z" transform="translate(-224.487 -0.006)" fill="#5689e3"/>
      <path id="Caminho_1596" data-name="Caminho 1596" d="M297.682,13.367a1.611,1.611,0,0,1,.848-1.6l-3.542-1.71-.549,1.611A27.809,27.809,0,0,1,297.682,13.367Z" transform="translate(-270.582 -9.245)" fill="#5689e3"/>
      <path id="Caminho_1597" data-name="Caminho 1597" d="M293.7,11.671l.549-1.611A1.38,1.38,0,0,0,293.7,11.671Z" transform="translate(-269.84 -9.245)" fill="#5689e3"/>
      <path id="Caminho_1598" data-name="Caminho 1598" d="M334.45,32.766l.848-1.6A1.611,1.611,0,0,0,334.45,32.766Z" transform="translate(-307.35 -28.644)" fill="#5689e3"/>
      <line id="Linha_124" data-name="Linha 124" x1="0.673" y2="1.372" transform="translate(17.973 14.521)"/>
      <line id="Linha_125" data-name="Linha 125" x1="0.773" y2="1.471" transform="translate(19.593 15.245)"/>
    </g>
  </g>
</svg>
