<svg xmlns="http://www.w3.org/2000/svg" width="33" height="33" viewBox="0 0 33 33">
  <g id="profile" opacity="0.218">
    <circle id="Elipse_404" data-name="Elipse 404" cx="16.5" cy="16.5" r="16.5"/>
    <path id="Caminho_1501" data-name="Caminho 1501" d="M39.938,36.634a.972.972,0,0,1-.873-.96V34.245a3.566,3.566,0,0,0,.975-2.143l.051-.788a1.552,1.552,0,0,0,.693-.936c.18-.616.026-1.157-.385-1.207h-.18l.1-1.453A3.445,3.445,0,0,0,36.832,24H36.19a3.515,3.515,0,0,0-3.543,3.719l.1,1.478a.338.338,0,0,0-.154-.025c-.411.049-.565.591-.385,1.207a1.567,1.567,0,0,0,.719.96l.051.763a3.4,3.4,0,0,0,.95,2.143v1.428a.972.972,0,0,1-.873.96C30.8,37,27,38.579,27,40.254V43.7H46V40.254C46,38.579,42.2,37,39.938,36.634Z" transform="translate(-20.041 -17.814)" fill="#fff"/>
  </g>
</svg>
